<svg width="22.000000" height="21.999023" viewBox="0 0 22 21.999" fill="none" xmlns="http://www.w3.org/2000/svg" xmlns:xlink="http://www.w3.org/1999/xlink">
	<desc>
			Created with Pixso.
	</desc>
	<defs/>
	<path id="icon" d="M19.87 17.67L17.65 19.89L14.81 19.1L14 19.44L12.54 21.99L9.41 21.99L7.96 19.43L7.15 19.09L4.31 19.87L2.1 17.65L2.89 14.81L2.55 14L0 12.54L0 9.41L2.56 7.96L2.9 7.15L2.12 4.31L4.34 2.1L7.17 2.89L7.99 2.56L9.44 0L12.58 0L14.02 2.56L14.84 2.9L17.67 2.12L19.89 4.34L19.1 7.18L19.44 7.99L22 9.44L22 12.58L19.43 14.03L19.09 14.84L19.87 17.67ZM16.98 14.7L17.85 12.62L20 11.41L20 10.61L17.85 9.39L16.99 7.3L17.65 4.93L17.08 4.36L14.7 5.01L12.62 4.14L11.41 2L10.6 2L9.38 4.14L7.3 5L4.93 4.34L4.36 4.9L5.01 7.29L4.14 9.37L2 10.58L2 11.38L4.14 12.61L5 14.69L4.34 17.06L4.9 17.63L7.29 16.98L9.37 17.85L10.58 19.99L11.38 19.99L12.6 17.85L14.69 16.99L17.06 17.65L17.63 17.08L16.98 14.7ZM7 11C7 13.2 8.79 15 11 15C13.2 15 15 13.2 15 11C15 8.79 13.2 7 11 7C8.79 7 7 8.79 7 11ZM11 13C12.1 13 13 12.1 13 11C13 9.89 12.1 9 11 9C9.89 9 9 9.89 9 11C9 12.1 9.89 13 11 13Z" fill="#9564AA" fill-opacity="1.000000" fill-rule="evenodd"/>
</svg>
