<svg width="23" height="16" viewBox="0 0 23 16" fill="none" xmlns="http://www.w3.org/2000/svg">
<path fill-rule="evenodd" clip-rule="evenodd" d="M11.187 0C13.9146 0 16.5227 1.43062 18.9533 3.78115C19.7825 4.58305 20.5327 5.43916 21.1931 6.29562C21.5916 6.81244 21.8746 7.21899 22.0295 7.4612L22.3741 8L22.0295 8.5388C21.8746 8.781 21.5916 9.18756 21.1931 9.70438C20.5327 10.5608 19.7825 11.417 18.9533 12.2189C16.5227 14.5694 13.9146 16 11.187 16C8.45949 16 5.85136 14.5694 3.42074 12.2189C2.59153 11.417 1.84134 10.5608 1.18094 9.70438C0.782441 9.18756 0.499509 8.781 0.3446 8.5388L0 8L0.3446 7.4612C0.499509 7.21899 0.782441 6.81244 1.18094 6.29562C1.84134 5.43916 2.59153 4.58305 3.42074 3.78115C5.85136 1.43062 8.45949 0 11.187 0ZM19.6093 7.51688C19.0046 6.73272 18.3172 5.9482 17.563 5.21885C15.4695 3.19438 13.2921 2 11.187 2C9.08196 2 6.90453 3.19438 4.81108 5.21885C4.05687 5.9482 3.36942 6.73272 2.76478 7.51688C2.63419 7.68624 2.51352 7.84782 2.4032 8C2.51352 8.15218 2.63419 8.31376 2.76478 8.48312C3.36942 9.26728 4.05687 10.0518 4.81108 10.7811C6.90453 12.8056 9.08196 14 11.187 14C13.2921 14 15.4695 12.8056 17.563 10.7811C18.3172 10.0518 19.0046 9.26728 19.6093 8.48312C19.7399 8.31376 19.8605 8.15218 19.9709 8C19.8605 7.84782 19.7399 7.68624 19.6093 7.51688ZM7.18703 8C7.18703 10.2091 8.9779 12 11.187 12C13.3962 12 15.187 10.2091 15.187 8C15.187 5.79086 13.3962 4 11.187 4C8.9779 4 7.18703 5.79086 7.18703 8ZM13.187 8C13.187 9.10457 12.2916 10 11.187 10C10.0825 10 9.18703 9.10457 9.18703 8C9.18703 6.89543 10.0825 6 11.187 6C12.2916 6 13.187 6.89543 13.187 8Z" fill="#9564AA"/>
</svg>
